<svg width="46" height="46" viewBox="0 0 46 46" fill="none" xmlns="http://www.w3.org/2000/svg">
<g clip-path="url(#clip0_7_66)">
<path d="M45.3164 23C45.3164 35.3086 35.3438 45.2812 23.0352 45.2812C10.7266 45.2812 0.753906 35.3086 0.753906 23C0.753906 10.6914 10.7266 0.71875 23.0352 0.71875C35.3438 0.71875 45.3164 10.6914 45.3164 23ZM19.082 12.5781V23H12.7121C11.7508 23 11.2656 24.168 11.9484 24.8418L22.2715 35.1109C22.6938 35.5332 23.3676 35.5332 23.7898 35.1109L34.1129 24.8418C34.7957 24.159 34.3105 23 33.3492 23H26.9883V12.5781C26.9883 11.9852 26.5031 11.5 25.9102 11.5H20.1602C19.5672 11.5 19.082 11.9852 19.082 12.5781Z" fill="white"/>
</g>
<defs>
<clipPath id="clip0_7_66">
<rect width="46" height="46" fill="white"/>
</clipPath>
</defs>
</svg>
