<svg width="1512" height="543" viewBox="0 0 1512 543" fill="none" xmlns="http://www.w3.org/2000/svg">
<mask id="mask0_58_6" style="mask-type:alpha" maskUnits="userSpaceOnUse" x="0" y="0" width="1512" height="543">
<rect width="1512" height="543" fill="white"/>
</mask>
<g mask="url(#mask0_58_6)">
<path d="M0 2.9834H756V543H0V2.9834Z" fill="#7ACFFF"/>
<path fill-rule="evenodd" clip-rule="evenodd" d="M-81 392.83L-13.1058 381.278C52.6667 368.076 186.333 343.323 320 311.969C453.667 280.614 587.333 242.659 721 242.659C854.667 242.659 988.333 280.614 1122 293.816C1255.67 305.368 1389.33 293.816 1457.23 287.215L1523 280.614V543H1457.23C1389.33 543 1255.67 543 1122 543C988.333 543 854.667 543 721 543C587.333 543 453.667 543 320 543C186.333 543 52.6667 543 -13.1058 543H-81V392.83Z" fill="#ED6565"/>
<path fill-rule="evenodd" clip-rule="evenodd" d="M-2018.5 264.611L-1851.27 317.509C-1684.03 370.407 -1349.57 476.204 -1015.1 370.407C-680.633 264.611 -346.167 -52.7787 -11.7 0.119568C322.767 53.0178 657.233 476.204 991.7 529.102C1326.17 582 1660.63 264.611 1995.1 211.712C2329.57 158.814 2664.03 370.407 2831.27 476.204L2998.5 582V-528.863H2831.27C2664.03 -528.863 2329.57 -528.863 1995.1 -528.863C1660.63 -528.863 1326.17 -528.863 991.7 -528.863C657.233 -528.863 322.767 -528.863 -11.7 -528.863C-346.167 -528.863 -680.633 -528.863 -1015.1 -528.863C-1349.57 -528.863 -1684.03 -528.863 -1851.27 -528.863H-2018.5V264.611Z" fill="#00A7DA"/>
</g>
</svg>
